<?xml version="1.0" encoding="utf-8"?>
<!-- Generator: Adobe Illustrator 22.0.1, SVG Export Plug-In . SVG Version: 6.00 Build 0)  -->
<svg version="1.1" id="Layer_1" xmlns="http://www.w3.org/2000/svg" xmlns:xlink="http://www.w3.org/1999/xlink" x="0px" y="0px"
	 viewBox="0 0 1366 768" style="enable-background:new 0 0 1366 768;" xml:space="preserve">
<style type="text/css">
	.st0{fill:#E4172C;}
	.st1{fill:#FFFFFF;}
</style>
<g id="logo_3_">
	<g>
		<polygon class="st0" points="303.6,364.7 303.6,364.7 243.6,304.7 223.6,324.7 283.6,384.7 223.6,444.6 243.6,464.6 323.6,384.7 
					"/>
		<polygon class="st0" points="212,273 212,273 152,213.1 132,233 192,293 132,353 152,373 232,293 		"/>
		<polygon class="st0" points="212,456.3 212,456.3 152,396.3 132,416.3 192,476.3 132,536.3 152,556.2 232,476.3 		"/>
	</g>
	<g>
		<path class="st1" d="M386.6,336.3h18v81.6h50.6V433h-68.6V336.3z"/>
		<path class="st1" d="M588.2,410.6h-48.4l-9.5,22.4h-18.5l43.6-96.8h17.7l43.7,96.8h-18.8L588.2,410.6z M582.2,396.5L564,354.2
			l-18.1,42.3H582.2z"/>
		<path class="st1" d="M765.5,391.5c3.1,4.1,4.7,9.2,4.7,15.3c0,8.4-3.2,14.9-9.7,19.4c-6.5,4.6-15.9,6.8-28.2,6.8h-48.1v-96.8h45.3
			c11.4,0,20.2,2.2,26.4,6.7c6.2,4.5,9.3,10.6,9.3,18.5c0,4.8-1.1,9-3.3,12.7c-2.2,3.7-5.3,6.5-9.1,8.6
			C758.2,384.5,762.4,387.4,765.5,391.5z M702.2,350.4V377h25.4c6.3,0,11.1-1.1,14.4-3.4c3.4-2.3,5-5.6,5-9.9c0-4.4-1.7-7.8-5-10
			c-3.4-2.3-8.2-3.4-14.4-3.4H702.2z M752.1,405c0-9.3-7-14-20.9-14h-29v27.9h29C745.2,418.9,752.1,414.3,752.1,405z"/>
		<path class="st1" d="M908.1,433l-19.8-28.3c-0.8,0.1-2.1,0.1-3.7,0.1h-21.8V433h-18v-96.8h39.8c8.4,0,15.7,1.4,21.9,4.1
			c6.2,2.8,11,6.7,14.3,11.9c3.3,5.2,5,11.3,5,18.4c0,7.3-1.8,13.5-5.3,18.8c-3.5,5.3-8.6,9.2-15.3,11.8l22.3,31.8H908.1z
			 M901.6,356.4c-4.1-3.3-10-5-17.8-5h-21V390h21c7.8,0,13.8-1.7,17.8-5c4.1-3.4,6.1-8.1,6.1-14.3
			C907.7,364.5,905.6,359.8,901.6,356.4z"/>
		<path class="st1" d="M1011.5,423.2c-7.5-7.5-11.2-18.3-11.2-32.3v-54.6h18v53.9c0,19,8.2,28.5,24.6,28.5
			c16.3,0,24.5-9.5,24.5-28.5v-53.9h17.7v54.6c0,14-3.7,24.8-11.1,32.3c-7.4,7.5-17.8,11.3-31.2,11.3
			C1029.4,434.4,1019,430.7,1011.5,423.2z"/>
		<path class="st1" d="M1173.9,431.2c-7-2.1-12.5-4.9-16.5-8.4l6.2-14c4,3.1,8.8,5.7,14.6,7.7c5.8,2,11.5,3,17.4,3
			c7.2,0,12.6-1.2,16.1-3.5c3.5-2.3,5.3-5.3,5.3-9.1c0-2.8-1-5-3-6.8c-2-1.8-4.5-3.2-7.5-4.2c-3-1-7.2-2.2-12.4-3.5
			c-7.4-1.7-13.3-3.5-17.9-5.3c-4.6-1.8-8.5-4.5-11.8-8.2c-3.3-3.7-4.9-8.8-4.9-15.1c0-5.3,1.5-10.2,4.4-14.6
			c2.9-4.4,7.3-7.9,13.1-10.4c5.9-2.6,13-3.9,21.5-3.9c5.9,0,11.7,0.7,17.4,2.2c5.7,1.5,10.6,3.6,14.8,6.4l-5.7,14
			c-4.2-2.5-8.7-4.4-13.3-5.7c-4.6-1.3-9.1-1.9-13.4-1.9c-7.1,0-12.4,1.2-15.8,3.6c-3.5,2.4-5.2,5.6-5.2,9.5c0,2.8,1,5,3,6.8
			c2,1.8,4.5,3.1,7.5,4.1c3,1,7.2,2.2,12.4,3.5c7.2,1.7,13.1,3.4,17.7,5.2c4.6,1.8,8.5,4.5,11.8,8.2c3.3,3.7,4.9,8.7,4.9,14.9
			c0,5.3-1.5,10.2-4.4,14.5c-2.9,4.3-7.3,7.8-13.2,10.4c-5.9,2.6-13.1,3.9-21.6,3.9C1188,434.4,1180.8,433.4,1173.9,431.2z"/>
	</g>
</g>
</svg>
